# xmcd CD database file
#
# Track frame offsets:
#	150
#	14600
#	33782
#	49295
#	65627
#	81992
#	108295
#	140285
#	157997
#	182735
#	196912
#
# Disc length: 2880 seconds
#
# Revision: 4
# Processed by: cddbd v1.5.1PL2 Copyright (c) Steve Scherf et al.
# Submitted via: CDex 1.40Release
#
DISCID=8f0b3e0b
DTITLE=Green Hornet and Andre Williams - Holland Shuffle!-Live at the Vera Club Dec 19, 2001
DYEAR=2001
DGENRE=Alternative
TTITLE0=Agile, Mobile and Hostile
TTITLE1=You Got It and I Want It
TTITLE2=I Can Tell
TTITLE3=Shake a Tail Feather
TTITLE4=I Wanna Be Your Favorite Pair of Pajamas
TTITLE5=Car with the Star
TTITLE6=I Don't Know Why
TTITLE7=Pussy Stank
TTITLE8=Get This Love off My Mind
TTITLE9=Jail Bait
TTITLE10=Hallelujah
EXTD=YEAR: 2001 ID3G: 20
EXTT0=
EXTT1=
EXTT2=
EXTT3=
EXTT4=
EXTT5=
EXTT6=
EXTT7=
EXTT8=
EXTT9=
EXTT10=
PLAYORDER=
